<svg xmlns="http://www.w3.org/2000/svg" width="82.033" height="80" viewBox="0 0 82.033255 79.999998"><path d="M55.07 79.555c-.4.144-.8.318-1.21.39-1.576.28-2.584-.532-2.594-2.14-.02-2.99-.02-5.975.028-8.965.05-3.437-.028-6.83-2.645-9.666 1.555-.28 2.94-.474 4.293-.786 8.97-2.06 13.63-7.718 14.224-17.108.305-4.78-.548-9.166-3.725-12.93-.23-.266-.242-.867-.133-1.253.845-3.112.6-6.152-.386-9.195-.244-.76-.648-.994-1.398-.945-2.634.146-5.048 1.07-7.175 2.492-2.05 1.376-3.96 1.676-6.396 1.118-5.365-1.21-10.765-.857-16.12.384-.605.144-1.42-.05-1.976-.374-2.513-1.473-5.026-2.904-7.925-3.475-2.24-.437-2.436-.325-3.03 1.842-.75 2.73-.823 5.465-.06 8.213.11.4-.003 1.04-.27 1.335-5.94 6.627-3.79 19.148.213 23.945 3.112 3.725 7.247 5.402 11.836 6.273.802.15 1.598.264 2.4.403-.688 1.79-1.306 3.477-2.005 5.138-.137.32-.57.59-.926.726-4.5 1.746-8.37.462-10.946-3.624-1.378-2.178-3.145-3.807-5.78-4.278-.083-.016-.17-.06-.245-.05-.71.187-1.41.382-2.117.572.397.553.678 1.296 1.21 1.63 2.232 1.41 3.684 3.425 4.643 5.8 1.507 3.726 4.434 5.387 8.236 5.712 1.856.15 3.73.023 5.763.023 0 2.315.083 4.956-.035 7.585-.06 1.417-1.484 1.983-3.19 1.403-4.52-1.547-8.714-3.765-12.335-6.882C2.22 61.603-2.82 47.366 1.525 30.7 5.86 14.088 17.15 3.898 34.03.7c23.36-4.418 45.487 12.594 47.805 36.306 1.83 18.693-9.172 36.185-26.764 42.55zm-22.02-20.53l-.038.088.128.02c.033.003.06.06-.09-.108zm-10.57 7.388c.366.226.715.51 1.11.634.143.047.41-.28.882-.63-.655-.248-1.04-.466-1.447-.522-.158-.018-.362.337-.544.518zm3.33.572c.053.244.54.548.824.543.277-.004.546-.37.823-.58-.25-.23-.502-.453-1.273-1.148-.167.483-.444.873-.374 1.185zm4.083-.983c-.344.08-.634.4-.948.618.184.232.367.448.662.813.407-.372.683-.63.962-.88-.233-.202-.505-.593-.677-.55zM19.77 64.625c.19.36.486.67.886 1.18.267-.437.557-.77.506-.84-.253-.33-.597-.603-.936-.85-.023-.02-.495.43-.455.51z"/></svg>