<svg xmlns="http://www.w3.org/2000/svg" width="61.056" height="80" version="1"><path d="M56.766 38.73c-.014.005-.043.01-.054.015-.184.094-.278.147-.455.24h.51v-.256zm-.51.254H.117v20.04c.595-.655 6.804-7.418 11.99-9.318 7.11-2.605 15.792-1.79 30.172-4.667 4.97-.995 6.682-2.26 13.98-6.056zM.117 59.024c-.016.02-.063.067-.116.123h.115v-.122zm60.774-15.18v.218c.053-.054.11-.108.163-.163l.003-.055h-.166zm0 .218C51.965 53.238 32.012 58.36 30.34 58.28c17.075 2.29 26.19-6.562 29.9-7.11-8.63 18.342-39.233 17.42-39.233 17.42C38.75 73.42 53.184 66.2 53.184 66.2 45.1 79.577 15.254 77.76 15.254 77.76c-2.722.236-4.883 1.722-5.417 2.116H60.89V44.062zM9.837 79.876h-.17V80l.17-.124z"/><path d="M4.23 22.113h13.032V39.03H4.232zM43.628 22.31h13.184v16.704H43.628z"/><path d="M31.045 0C11.537.14 4.24 18.233 4.24 22.195c5.336 0 11.122.3 12.344.3h.624c1.457-5.966 6.83-10.393 13.24-10.393 6.383 0 11.728 4.387 13.213 10.31h.842c10.974 0 12.264.083 12.264.083S52.382-.152 31.046 0zm-1.58 3.458c6.425-.126 11.42 2.266 11.42 2.266-8.037-1.246-21.937-4.06-31.854 16.16 0 0 1.164-11.337 11.127-16.23 3.175-1.56 6.39-2.138 9.31-2.196z" fill-rule="evenodd"/></svg>