<svg xmlns="http://www.w3.org/2000/svg" viewBox="0 0 79.32346 79.999996" width="79.323" height="80"><path d="M66.554 47.273c0-2.65-.338-4.96-1.015-6.935-.677-1.973-1.608-3.608-2.792-4.905a10.935 10.935 0 0 0-4.185-2.875c-1.607-.62-3.37-.93-5.286-.93-1.523 0-2.847.183-3.975.55-1.127.366-2.1.845-2.917 1.437a11.308 11.308 0 0 0-2.072 1.903 28.35 28.35 0 0 0-1.438 1.86v-4.905h-11.5c.056.96.084 2.82.084 5.582v10.487s-.03 6.23-.086 18.69h11.5V47.78c0-.507.03-1 .086-1.48a4.7 4.7 0 0 1 .338-1.31c.45-1.015 1.142-1.973 2.072-2.876.93-.902 2.213-1.353 3.848-1.353 2.086 0 3.58.72 4.482 2.157.902 1.438 1.353 3.34 1.353 5.71V67.23h11.5V47.274zM19.197 27.738c2.03 0 3.636-.592 4.82-1.776 1.184-1.184 1.748-2.593 1.69-4.228 0-1.692-.577-3.115-1.732-4.27-1.156-1.157-2.72-1.735-4.694-1.735-1.972 0-3.55.577-4.735 1.733-1.183 1.156-1.775 2.58-1.775 4.27 0 1.636.563 3.045 1.69 4.23 1.128 1.183 2.68 1.775 4.652 1.775h.085zm5.75 4.736h-11.5V67.23h11.5V32.475zM77.294 0c.564 0 1.043.183 1.437.55.396.366.593.83.593 1.395v76.11c0 .564-.197 1.03-.592 1.395-.393.367-.872.55-1.436.55H2.03c-.564 0-1.043-.183-1.438-.55C.197 79.084 0 78.62 0 78.055V1.945C0 1.38.197.915.592.55.987.183 1.466 0 2.03 0h75.264z" fill="#010002"/></svg>