<svg xmlns="http://www.w3.org/2000/svg" width="80" height="80" viewBox="0 0 80 80"><path d="M75.745 0H4.255A4.255 4.255 0 0 0 0 4.255v71.49A4.255 4.255 0 0 0 4.255 80h71.49A4.255 4.255 0 0 0 80 75.745V4.255A4.255 4.255 0 0 0 75.745 0zM23.12 53.05h-9.38c-.566 0-.99-.254-1.227-.64-.247-.398-.26-.92 0-1.437l9.967-17.59c.012-.018.012-.032 0-.053l-6.342-10.98c-.265-.524-.3-1.04-.055-1.44.24-.388.715-.586 1.28-.586h9.38c1.44 0 2.146.927 2.613 1.76 0 0 6.41 11.183 6.45 11.245-.38.668-10.128 17.908-10.128 17.908-.48.867-1.156 1.813-2.56 1.813zM67.476 9.526L46.707 46.25a.055.055 0 0 0 0 .062l13.226 24.164c.262.518.268 1.047.018 1.447-.236.388-.678.6-1.243.6h-9.37c-1.437 0-2.156-.954-2.62-1.785 0 0-13.297-24.392-13.33-24.456.665-1.177 20.875-37.016 20.875-37.016.504-.905 1.11-1.787 2.51-1.787h9.478c.565 0 1.01.213 1.247.597.25.4.242.93-.02 1.448z"/></svg>